<?xml version="1.0" encoding="UTF-8"?>
<svg version="1.1" xmlns="http://www.w3.org/2000/svg" width="1024" height="1024">
<path d="M0 0 C337.92 0 675.84 0 1024 0 C1024 337.92 1024 675.84 1024 1024 C686.08 1024 348.16 1024 0 1024 C0 686.08 0 348.16 0 0 Z " fill="#FCFBFB" transform="translate(0,0)"/>
<path d="M0 0 C0.62777344 0.40089844 1.25554687 0.80179688 1.90234375 1.21484375 C2.92134766 1.86259766 2.92134766 1.86259766 3.9609375 2.5234375 C8.64454314 5.69924253 8.64454314 5.69924253 9.90234375 8.21484375 C10.23234375 4.91484375 10.56234375 1.61484375 10.90234375 -1.78515625 C16.84234375 -1.78515625 22.78234375 -1.78515625 28.90234375 -1.78515625 C28.99325742 7.73455422 29.06640959 17.25396927 29.10959244 26.77401829 C29.13033376 31.19610989 29.15840026 35.61788525 29.20410156 40.03979492 C29.24804605 44.31923907 29.27158157 48.59838196 29.28185272 52.87803459 C29.28915803 54.49847077 29.30341916 56.11889329 29.32526398 57.73919868 C29.51497212 72.41438128 28.31972329 86.86011309 17.90234375 98.21484375 C8.80350294 106.93535438 -2.70384226 109.71453509 -14.9453125 109.4921875 C-24.8117612 109.0415726 -33.92457056 104.23545954 -40.953125 97.4140625 C-43.65865855 94.41291245 -45.32394558 92.24165608 -46.09765625 88.21484375 C-44.141803 87.21000171 -42.18289388 86.2111057 -40.22265625 85.21484375 C-39.13210938 84.65796875 -38.0415625 84.10109375 -36.91796875 83.52734375 C-34.09765625 82.21484375 -34.09765625 82.21484375 -32.09765625 82.21484375 C-30.87109375 83.60546875 -30.87109375 83.60546875 -29.47265625 85.46484375 C-25.30476443 90.39235134 -21.47361729 92.71774321 -15.046875 93.6640625 C-8.13504203 94.02955308 -2.92146396 93.16759182 2.80078125 89.16015625 C7.6607298 84.66154217 9.68227 80.03765635 10.1953125 73.45703125 C10.21264227 70.02573602 10.12432397 66.63827208 9.90234375 63.21484375 C9.44085938 63.67375 8.979375 64.13265625 8.50390625 64.60546875 C1.32947121 71.35454203 -5.1819474 74.38145224 -15.09765625 74.71484375 C-25.58275732 74.36268976 -33.58377777 70.49796972 -41.09765625 63.21484375 C-49.07977507 53.81052113 -52.01540002 43.19212499 -51.48046875 31.01953125 C-50.95490617 25.79608276 -49.65531737 21.77242058 -47.09765625 17.21484375 C-46.46150391 16.04695312 -46.46150391 16.04695312 -45.8125 14.85546875 C-42.24925522 8.93988688 -37.86923731 4.95281404 -32.09765625 1.21484375 C-31.4325 0.77914062 -30.76734375 0.3434375 -30.08203125 -0.10546875 C-21.45173877 -4.81589556 -8.60812238 -4.6427685 0 0 Z " fill="#0F3152" transform="translate(468.09765625,552.78515625)"/>
<path d="M0 0 C4.06341865 2.42415916 7.18823227 5.33964441 10.3125 8.875 C10.6425 5.575 10.9725 2.275 11.3125 -1.125 C16.9225 -1.125 22.5325 -1.125 28.3125 -1.125 C28.35782812 8.48107476 28.39446046 18.08707755 28.41612434 27.6932354 C28.42652608 32.15458043 28.44061874 36.61584798 28.46337891 41.07714844 C28.4852368 45.38896564 28.49709573 49.70070869 28.50225449 54.01257706 C28.50592714 55.65106497 28.5130984 57.28954919 28.52396011 58.92800522 C28.61912692 73.8894889 27.71732431 87.95473156 17.25 99.75 C8.00928743 108.16564894 -3.90556382 110.32921933 -15.953125 110.21484375 C-26.42392041 109.26195756 -36.26525856 104.19603689 -43.125 96.19921875 C-44.99065993 93.58859044 -45.6875 92.12672044 -45.6875 88.875 C-43.94914943 87.81400672 -42.19630196 86.77673517 -40.4375 85.75 C-39.46296875 85.16992188 -38.4884375 84.58984375 -37.484375 83.9921875 C-34.6875 82.875 -34.6875 82.875 -32.4375 83.546875 C-30.6875 84.875 -30.6875 84.875 -28.9375 87.25 C-25.14819003 91.67086163 -21.35077975 93.54583059 -15.55859375 94.26171875 C-8.83765232 94.4875673 -3.05794771 94.2056116 2.3125 89.875 C8.38901339 83.97520847 10.07838751 77.51878313 10.421875 69.23828125 C10.43519597 67.11691602 10.38089691 64.99530417 10.3125 62.875 C9.8175 63.596875 9.3225 64.31875 8.8125 65.0625 C3.26390481 71.30466958 -3.56777844 74.46867289 -11.88671875 75.12890625 C-22.61024613 75.48828933 -29.69611818 73.67913799 -37.9375 66.75 C-42.56539159 62.34040518 -45.88030471 57.6031958 -48.6875 51.875 C-49.06132812 51.16214844 -49.43515625 50.44929687 -49.8203125 49.71484375 C-52.58272454 40.66856648 -52.44880393 26.4837373 -48.140625 18.00390625 C-37.52075983 2.44523282 -18.79889948 -8.89871802 0 0 Z " fill="#0E2F51" transform="translate(557.6875,552.125)"/>
<path d="M0 0 C58.44393593 0 58.44393593 0 70 10 C78.12703917 18.89604933 78.70312322 27.08530538 78.4375 38.73046875 C77.93516084 47.57634745 74.47932416 54.04400587 68 60 C64.81416075 62.5486714 61.40485265 64.75589257 58 67 C64.93698218 78.88304372 71.95413459 90.69254309 79.39160156 102.27075195 C80.10461426 103.38389771 80.10461426 103.38389771 80.83203125 104.51953125 C81.25202393 105.17026611 81.6720166 105.82100098 82.10473633 106.49145508 C83 108 83 108 83 109 C79.6264968 109.26292291 76.25562629 109.42164057 72.875 109.5625 C71.92367187 109.63791016 70.97234375 109.71332031 69.9921875 109.79101562 C63.07611916 110.00714276 63.07611916 110.00714276 60.19458008 107.31030273 C58.59967708 104.94620081 57.29544411 102.53987713 56 100 C54.99836925 98.33633249 53.98654127 96.67876372 52.96484375 95.02734375 C51.95343659 93.33209485 50.94433055 91.635471 49.9375 89.9375 C48.92651074 88.23784712 47.91480042 86.53862292 46.90234375 84.83984375 C46.42007324 84.0288623 45.93780273 83.21788086 45.44091797 82.38232422 C43.64666189 79.41581274 41.77835275 76.50006412 39.88500977 73.59594727 C39 72 39 72 39 70 C32.4 70 25.8 70 19 70 C19 83.2 19 96.4 19 110 C12.73 110 6.46 110 0 110 C0 73.7 0 37.4 0 0 Z " fill="#103153" transform="translate(248,520)"/>
<path d="M0 0 C5.61 0 11.22 0 17 0 C17 36.3 17 72.6 17 110 C11.39 110 5.78 110 0 110 C-0.33 106.7 -0.66 103.4 -1 100 C-1.969375 101.0725 -2.93875 102.145 -3.9375 103.25 C-10.75422121 109.91794357 -17.46304959 111.68835733 -26.90820312 111.60693359 C-37.17152814 111.09953866 -45.12377187 105.971772 -52.0234375 98.5703125 C-60.46329117 87.59516682 -61.91704365 76.38204433 -61 63 C-59.4517239 53.08053615 -53.98467685 44.8499317 -46.24609375 38.57421875 C-37.53185939 32.4666771 -29.57830535 30.82605055 -19 32 C-11.65305446 33.6352502 -6.23809436 37.76190564 -1 43 C-0.67 28.81 -0.34 14.62 0 0 Z " fill="#209A9D" transform="translate(697,385)"/>
<path d="M0 0 C6.93 0 13.86 0 21 0 C21.95777344 2.58199219 22.91554688 5.16398437 23.90234375 7.82421875 C31.91601709 29.41129384 39.98648984 50.9757531 48.15014648 72.5065918 C51.45456112 81.22513024 54.74587476 89.94859628 57.99609375 98.6875 C58.2994313 99.49614502 58.60276886 100.30479004 58.91529846 101.13793945 C61 106.76918222 61 106.76918222 61 109 C54.73 109 48.46 109 42 109 C33 88 33 88 33 83 C17.82 83.33 2.64 83.66 -13 84 C-15.91986677 91.85228157 -15.91986677 91.85228157 -18.83374023 99.70678711 C-19.19669189 100.6788208 -19.55964355 101.65085449 -19.93359375 102.65234375 C-20.30540771 103.65257568 -20.67722168 104.65280762 -21.06030273 105.68334961 C-22 108 -22 108 -23 109 C-24.41570123 109.08651611 -25.835595 109.10704904 -27.25390625 109.09765625 C-28.10791016 109.09443359 -28.96191406 109.09121094 -29.84179688 109.08789062 C-30.73962891 109.07951172 -31.63746094 109.07113281 -32.5625 109.0625 C-33.46419922 109.05798828 -34.36589844 109.05347656 -35.29492188 109.04882812 C-37.53001314 109.03700225 -39.76497437 109.0205222 -42 109 C-35.53596826 91.79807573 -28.93525173 74.65348099 -22.23876953 57.54083252 C-14.74611429 38.39108554 -7.36266056 19.20004155 0 0 Z " fill="#209A9D" transform="translate(220,386)"/>
<path d="M0 0 C9.45015366 6.79747895 13.27531829 14.65306715 16.44921875 25.76171875 C16.44921875 31.04171875 16.44921875 36.32171875 16.44921875 41.76171875 C-3.02078125 41.76171875 -22.49078125 41.76171875 -42.55078125 41.76171875 C-38.0501648 53.6201745 -38.0501648 53.6201745 -28.453125 59.96484375 C-22.90337507 62.28958499 -17.16024909 62.81474452 -11.328125 61.11328125 C-6.15173034 58.77941545 -2.89767377 55.2749526 0.44921875 50.76171875 C5.4643059 52.30230108 10.06392685 53.79103714 14.44921875 56.76171875 C12.31852591 64.3375155 6.12239229 69.75627126 -0.36328125 73.75390625 C-10.41145406 78.38324301 -24.89412815 78.69467928 -35.31640625 74.8671875 C-47.66992153 68.75522102 -54.14118751 60.65670602 -58.55078125 47.76171875 C-61.56109004 35.68285474 -59.45566931 24.01464008 -53.3046875 13.40234375 C-41.95516761 -3.6851294 -18.13135315 -10.84846653 0 0 Z " fill="#0E2F51" transform="translate(654.55078125,554.23828125)"/>
<path d="M0 0 C9.87122982 6.31386209 14.00339983 13.4791183 18.0703125 24.32421875 C18.0703125 30.26421875 18.0703125 36.20421875 18.0703125 42.32421875 C-1.0696875 42.32421875 -20.2096875 42.32421875 -39.9296875 42.32421875 C-36.82079326 51.65090148 -35.33676778 55.68601363 -27.1171875 60.19921875 C-20.17736948 63.38167968 -14.29630814 63.07850648 -7.1171875 60.5234375 C-3.1544042 58.35098308 -0.58047391 54.91258234 2.0703125 51.32421875 C5.62022556 51.92322717 8.61842393 52.87633001 11.8828125 54.38671875 C12.67300781 54.74894531 13.46320313 55.11117187 14.27734375 55.484375 C15.16486328 55.90009766 15.16486328 55.90009766 16.0703125 56.32421875 C14.55397707 63.06348733 10.44081546 67.96427223 4.85546875 71.875 C-5.27172922 77.74358139 -16.65550158 79.04714774 -28.0625 76.671875 C-38.54996572 73.1909925 -46.82187999 67.18867201 -51.9296875 57.32421875 C-52.3421875 56.54820312 -52.7546875 55.7721875 -53.1796875 54.97265625 C-57.51167873 45.25575925 -58.00161792 31.67124416 -54.3046875 21.63671875 C-49.18298302 11.32167757 -41.01854702 2.71941509 -30.3203125 -1.79296875 C-20.87672328 -4.25178345 -8.86732894 -4.40276785 0 0 Z " fill="#1F9A9D" transform="translate(832.9296875,419.67578125)"/>
<path d="M0 0 C6.46211448 5.25571324 9.75692964 11.17989808 11.46875 19.26953125 C11.55419597 21.04098745 11.58649804 22.81535647 11.58227539 24.58886719 C11.58216209 26.18006378 11.58216209 26.18006378 11.58204651 27.80340576 C11.57688522 28.94207092 11.57172394 30.08073608 11.56640625 31.25390625 C11.5649913 32.42463684 11.56357635 33.59536743 11.56211853 34.80157471 C11.5565209 38.54091954 11.5439688 42.28020451 11.53125 46.01953125 C11.5262347 48.55468664 11.52167184 51.08984296 11.51757812 53.625 C11.50655223 59.83986682 11.48928919 66.05468888 11.46875 72.26953125 C5.85875 72.26953125 0.24875 72.26953125 -5.53125 72.26953125 C-6.02625 67.81453125 -6.02625 67.81453125 -6.53125 63.26953125 C-7.0159375 63.74003906 -7.500625 64.21054687 -8 64.6953125 C-15.60797489 71.76195072 -23.50972716 74.61035921 -33.87109375 74.48828125 C-40.35240142 73.95531028 -46.65873159 71.58835439 -51.53125 67.26953125 C-55.30391917 61.83010083 -57.40580078 56.44622326 -57.0078125 49.78515625 C-55.77304908 43.26722475 -52.91941258 37.98640669 -47.71875 33.83203125 C-35.37786062 25.71181779 -20.74074034 27.10536512 -6.53125 27.26953125 C-7.36171802 19.68767127 -7.36171802 19.68767127 -10.96875 13.14453125 C-16.25481389 9.27667962 -22.22310885 9.67631533 -28.53125 10.26953125 C-33.54164585 12.59578647 -35.80313152 15.65271536 -38.53125 20.26953125 C-43.77005078 19.71807854 -48.50475697 18.84031032 -53.53125 17.26953125 C-52.95542028 10.07165981 -50.47881 5.88109723 -45.21875 1.08203125 C-33.07987751 -8.84741049 -12.70435468 -8.68523013 0 0 Z " fill="#1F9A9D" transform="translate(530.53125,422.73046875)"/>
<path d="M0 0 C0.68320312 0.391875 1.36640625 0.78375 2.0703125 1.1875 C2.71226562 1.538125 3.35421875 1.88875 4.015625 2.25 C11.97716733 7.21303938 15.63412088 15.45927392 18.0703125 24.1875 C18.5653125 25.6725 18.5653125 25.6725 19.0703125 27.1875 C19.0703125 32.1375 19.0703125 37.0875 19.0703125 42.1875 C0.2603125 42.1875 -18.5496875 42.1875 -37.9296875 42.1875 C-34.27941528 52.22574861 -32.15028524 57.1433777 -22.9921875 61.625 C-15.25808881 63.04554874 -8.63225325 62.6861273 -1.9296875 58.1875 C0.12244595 55.95359249 1.50405868 53.81476447 3.0703125 51.1875 C8.14029269 51.84169099 12.49022027 54.0421409 17.0703125 56.1875 C15.46621893 63.31680474 10.75747865 67.92783756 5.3203125 72.5 C-4.30621307 77.49838828 -15.3398651 78.92540241 -25.94921875 76.49609375 C-37.36704074 72.6795071 -45.30343783 66.31765474 -51.25 55.8671875 C-55.59703471 46.16995623 -55.50100731 33.73003071 -53.046875 23.51171875 C-50.55964052 17.03008452 -46.92376138 11.96977164 -41.9296875 7.1875 C-41.4346875 6.70667969 -40.9396875 6.22585938 -40.4296875 5.73046875 C-29.75238449 -3.87330107 -12.97338567 -6.33277131 0 0 Z " fill="#1F9A9D" transform="translate(372.9296875,419.8125)"/>
<path d="M0 0 C5.94 0 11.88 0 18 0 C18.01458252 1.41216797 18.02916504 2.82433594 18.04418945 4.27929688 C18.10237111 9.5425691 18.17960304 14.8054224 18.26245117 20.06835938 C18.29560715 22.34172746 18.32366783 24.61517602 18.34643555 26.88867188 C18.3801529 30.16571185 18.43247842 33.44202056 18.48828125 36.71875 C18.49467117 37.72740112 18.5010611 38.73605225 18.50764465 39.77526855 C18.63738963 46.07035875 18.91477343 52.68969918 23.45137024 57.55725098 C28.2724282 61.68743385 31.30253843 62.26992752 37.453125 62.234375 C40.78138895 61.92809304 43.15733021 60.70560187 46 59 C46.66 59 47.32 59 48 59 C52.22435972 51.20118206 53.45497777 44.69984611 53.51171875 35.9375 C53.52966995 34.90560547 53.54762115 33.87371094 53.56611633 32.81054688 C53.61995456 29.54040516 53.65403022 26.27040719 53.6875 23 C53.72069642 20.77211553 53.75518821 18.54424996 53.79101562 16.31640625 C53.87566593 10.87770832 53.9426033 5.43905106 54 0 C59.61 0 65.22 0 71 0 C71 25.74 71 51.48 71 78 C65.06 78 59.12 78 53 78 C52.505 74.04 52.505 74.04 52 70 C51.05125 70.9075 50.1025 71.815 49.125 72.75 C42.53283651 78.33613051 35.36694423 80.74065259 26.73828125 80.38671875 C19.44428986 79.35661155 13.10279858 76.33474397 8 71 C1.33431401 61.43409967 -0.29691454 53.91935201 -0.1953125 42.3828125 C-0.1924826 41.17051971 -0.18965271 39.95822693 -0.18673706 38.709198 C-0.17556667 34.84769711 -0.15046737 30.98643047 -0.125 27.125 C-0.11496616 24.50260752 -0.10584102 21.8802114 -0.09765625 19.2578125 C-0.07563754 12.83845178 -0.04112886 6.41926558 0 0 Z " fill="#0E3052" transform="translate(337,551)"/>
<path d="M0 0 C7.55182235 5.59643978 12.43508873 13.37185733 14.1875 22.62109375 C14.45349371 26.64274521 14.42057558 30.65077241 14.3828125 34.6796875 C14.3799826 35.8239772 14.37715271 36.96826691 14.37423706 38.14723206 C14.36308578 41.78446118 14.33799014 45.42143966 14.3125 49.05859375 C14.30246369 51.53189747 14.29333898 54.00520507 14.28515625 56.47851562 C14.26316292 62.52613752 14.2286676 68.57357321 14.1875 74.62109375 C8.5775 74.62109375 2.9675 74.62109375 -2.8125 74.62109375 C-2.82708252 73.27474854 -2.84166504 71.92840332 -2.85668945 70.54125977 C-2.91495086 65.51463133 -2.9921814 60.48843786 -3.07495117 55.4621582 C-3.10806998 53.29263402 -3.13614193 51.12302637 -3.15893555 48.95336914 C-3.19272212 45.82271986 -3.24504978 42.69282649 -3.30078125 39.5625 C-3.30717117 38.60275772 -3.3135611 37.64301544 -3.32014465 36.65419006 C-3.48389677 29.04098711 -4.36093994 21.81369436 -9.8125 16.12109375 C-14.44375091 12.26171799 -18.2687063 12.27091178 -24.0859375 12.34765625 C-28.00178893 12.74036341 -29.97460937 13.92163681 -32.8125 16.62109375 C-34.38447343 18.89791978 -35.56693665 21.12996705 -36.8125 23.62109375 C-37.1425 24.28109375 -37.4725 24.94109375 -37.8125 25.62109375 C-37.93090113 27.19316018 -37.98953033 28.76992644 -38.01782227 30.34619141 C-38.03776749 31.32705719 -38.05771271 32.30792297 -38.07826233 33.31851196 C-38.10333107 34.91075089 -38.10333107 34.91075089 -38.12890625 36.53515625 C-38.14968735 37.61993256 -38.17046844 38.70470886 -38.19187927 39.82235718 C-38.25740634 43.29686996 -38.31627447 46.77145999 -38.375 50.24609375 C-38.41818221 52.59766433 -38.4617964 54.94922701 -38.50585938 57.30078125 C-38.61309098 63.07413904 -38.71434955 68.84757473 -38.8125 74.62109375 C-44.4225 74.62109375 -50.0325 74.62109375 -55.8125 74.62109375 C-55.8125 49.21109375 -55.8125 23.80109375 -55.8125 -2.37890625 C-50.2025 -2.37890625 -44.5925 -2.37890625 -38.8125 -2.37890625 C-38.4825 0.92109375 -38.1525 4.22109375 -37.8125 7.62109375 C-37.24402344 7.07839844 -36.67554688 6.53570312 -36.08984375 5.9765625 C-25.69652672 -3.65330553 -13.10548494 -7.60894109 0 0 Z " fill="#219B9E" transform="translate(612.8125,420.37890625)"/>
<path d="M0 0 C18.44694363 -1.78817309 18.44694363 -1.78817309 23.89453125 2.02734375 C25.93176922 4.91930885 27.46168253 7.81595137 29 11 C30.39428138 13.25678423 31.88248264 15.429657 33.375 17.625 C34.02210938 18.62789063 34.66921875 19.63078125 35.3359375 20.6640625 C36.78868682 23.0897629 36.78868682 23.0897629 39 24 C39.28182129 23.27079346 39.56364258 22.54158691 39.85400391 21.7902832 C43.06472398 13.97278859 47.35971098 5.40753645 54 0 C60.51966846 -2.22731596 67.34694086 -1.1342703 74 0 C72.61985961 3.84409055 70.83838701 6.90997149 68.48046875 10.23828125 C67.78759766 11.22376953 67.09472656 12.20925781 66.38085938 13.22460938 C65.65705078 14.24361328 64.93324219 15.26261719 64.1875 16.3125 C62.0779988 19.2963465 59.97373349 22.28304817 57.88818359 25.28369141 C56.70932019 26.97958412 55.51654289 28.66598826 54.30322266 30.33740234 C53.82804199 31.02398926 53.35286133 31.71057617 52.86328125 32.41796875 C52.44989502 32.99699951 52.03650879 33.57603027 51.6105957 34.17260742 C50.80074206 36.05220711 50.80074206 36.05220711 51.55688477 38.23291016 C53.5088364 41.97566432 55.82558117 45.38815062 58.2265625 48.85546875 C58.73424164 49.59831619 59.24192078 50.34116364 59.76498413 51.10652161 C61.38044937 53.46999676 63.00197675 55.8292097 64.625 58.1875 C66.7682984 61.30241438 68.9054958 64.42138322 71.0390625 67.54296875 C71.78429672 68.61951973 71.78429672 68.61951973 72.54458618 69.71781921 C76 74.77447469 76 74.77447469 76 77 C69.22363516 78.71884828 62.56968672 79.98404605 56 77 C48.28276698 69.4646593 43.07441361 59.4212595 38 50 C35.250807 53.28593668 33.0536111 56.52921353 31.03125 60.30078125 C22.12862842 75.79836279 22.12862842 75.79836279 16.34423828 78.02001953 C10.42754794 78.9175593 4.82852087 78.17162145 -1 77 C0.55010733 73.70101653 2.42529659 70.74006285 4.44921875 67.7109375 C5.13306641 66.68613281 5.81691406 65.66132813 6.52148438 64.60546875 C7.23626953 63.53941406 7.95105469 62.47335937 8.6875 61.375 C9.38294922 60.33214844 10.07839844 59.28929687 10.79492188 58.21484375 C11.48521484 57.18230469 12.17550781 56.14976562 12.88671875 55.0859375 C13.56782715 54.06467773 14.24893555 53.04341797 14.95068359 51.99121094 C16.29875337 50.02354941 17.68663325 48.08248176 19.11572266 46.17285156 C19.76460449 45.30370117 20.41348633 44.43455078 21.08203125 43.5390625 C21.96145386 42.40138428 21.96145386 42.40138428 22.85864258 41.24072266 C24.22186197 39.0377351 24.22186197 39.0377351 23.82836914 36.4440918 C23.01604499 34.04734051 22.15189108 32.38868493 20.6640625 30.35546875 C20.18163086 29.68580078 19.69919922 29.01613281 19.20214844 28.32617188 C18.68168945 27.62041016 18.16123047 26.91464844 17.625 26.1875 C16.53816529 24.68163673 15.45225115 23.17510868 14.3671875 21.66796875 C13.8112793 20.9001709 13.25537109 20.13237305 12.68261719 19.34130859 C9.98978381 15.59431613 7.36595724 11.80089316 4.75 8 C4.27256348 7.31188232 3.79512695 6.62376465 3.30322266 5.91479492 C0 1.11894611 0 1.11894611 0 0 Z " fill="#1F9A9D" transform="translate(394,418)"/>
<path d="M0 0 C5.94 0 11.88 0 18 0 C18 36.3 18 72.6 18 110 C12.06 110 6.12 110 0 110 C0 73.7 0 37.4 0 0 Z " fill="#229B9E" transform="translate(289,385)"/>
<path d="M0 0 C0 6.27 0 12.54 0 19 C-7.625 20.1875 -7.625 20.1875 -9.99072266 20.52416992 C-14.97146971 21.38211277 -18.74657558 22.97331571 -22 27 C-25.72802912 33.3091521 -26.59944832 39.06117661 -26.609375 46.28515625 C-26.62591125 47.22685165 -26.64244751 48.16854706 -26.65948486 49.13877869 C-26.70763419 52.11342098 -26.72926194 55.08755334 -26.75 58.0625 C-26.77818736 60.09312416 -26.80811862 62.12372491 -26.83984375 64.15429688 C-26.91338406 69.10282253 -26.96316012 74.05107058 -27 79 C-32.61 79 -38.22 79 -44 79 C-44 53.26 -44 27.52 -44 1 C-38.39 1 -32.78 1 -27 1 C-26.67 4.96 -26.34 8.92 -26 13 C-25.360625 12.13375 -24.72125 11.2675 -24.0625 10.375 C-17.27382945 2.23246352 -10.34290205 0 0 0 Z " fill="#0C2D4F" transform="translate(727,550)"/>
<path d="M0 0 C5.61 0 11.22 0 17 0 C17.33 3.96 17.66 7.92 18 12 C18.804375 10.948125 19.60875 9.89625 20.4375 8.8125 C24.61216501 4.00234734 29.324727 0.39982049 35.80078125 -0.3046875 C38.20265944 -0.31148206 40.60404602 -0.16872915 43 0 C43 5.94 43 11.88 43 18 C41.185 18.061875 39.37 18.12375 37.5 18.1875 C31.71274258 18.68569551 27.16002773 19.78324461 23 24 C18.81983237 29.93341161 18.39968663 34.59152503 18.390625 41.74609375 C18.37408875 42.75720718 18.35755249 43.76832062 18.34051514 44.81007385 C18.29217827 48.01927859 18.27069552 51.22800991 18.25 54.4375 C18.22182843 56.62176842 18.19189934 58.80601493 18.16015625 60.99023438 C18.08642279 66.32678393 18.0367605 71.66307288 18 77 C12.06 77 6.12 77 0 77 C0 51.59 0 26.18 0 0 Z " fill="#229B9E" transform="translate(729,418)"/>
<path d="M0 0 C5.60352745 3.54053724 9.11974003 7.5310951 11.23046875 13.86328125 C12.45476946 33.97392564 12.45476946 33.97392564 7.23046875 40.86328125 C2.50661944 46.00130692 -2.09353586 48.87801962 -9.14453125 49.17578125 C-15.98367815 48.9832887 -21.17577669 46.17297634 -26.1953125 41.68359375 C-28.95472637 38.49280749 -30.31395087 34.77613172 -31.76953125 30.86328125 C-32.09953125 30.20328125 -32.42953125 29.54328125 -32.76953125 28.86328125 C-33.52637218 21.1638802 -32.68875984 14.07994477 -28.22265625 7.62890625 C-21.07302921 -1.03922565 -10.8424201 -4.45013293 0 0 Z " fill="#F9FAFA" transform="translate(685.76953125,433.13671875)"/>
<path d="M0 0 C5.83181033 3.35018891 10.45421909 8.77671977 12.58203125 15.16015625 C13.28675499 22.85435319 12.99542796 29.62418751 8.58203125 36.16015625 C3.78719333 41.55870257 -0.96926901 43.81528628 -8.16796875 44.53515625 C-14.06105654 44.34323577 -19.72351041 42.3914163 -24.28125 38.6171875 C-29.04707609 33.44928179 -31.4821343 27.66920945 -31.85546875 20.66015625 C-31.60225315 14.76529709 -29.58926556 10.42044064 -25.51171875 6.17578125 C-18.00976657 -0.5983696 -10.14083844 -3.52226214 0 0 Z " fill="#F9F9FA" transform="translate(466.41796875,566.83984375)"/>
<path d="M0 0 C5.49738681 3.26276202 10.20375093 8.07204052 12.546875 14.08984375 C12.84765625 17.55078125 12.84765625 17.55078125 12.859375 21.46484375 C12.87613281 22.75132812 12.89289062 24.0378125 12.91015625 25.36328125 C12.27482706 31.88052909 9.42397826 35.87780003 4.546875 40.08984375 C-0.48530486 43.81365684 -4.33825213 44.8029975 -10.609375 44.52734375 C-16.54287994 43.61449684 -21.38578336 41.45131936 -25.375 36.89453125 C-30.38787826 29.66166405 -31.62022076 22.86508264 -30.453125 14.08984375 C-25.07808474 1.87876235 -13.04973606 -4.84170144 0 0 Z " fill="#F9F9FA" transform="translate(555.453125,566.91015625)"/>
<path d="M0 0 C5.94 0 11.88 0 18 0 C18 25.41 18 50.82 18 77 C12.06 77 6.12 77 0 77 C0 51.59 0 26.18 0 0 Z " fill="#0E3253" transform="translate(741,552)"/>
<path d="M0 0 C6.6825 -0.12375 6.6825 -0.12375 13.5 -0.25 C15.58344727 -0.30462402 15.58344727 -0.30462402 17.70898438 -0.36035156 C25.8238165 -0.43293085 31.80905119 -0.07744394 37.875 5.82421875 C41.43954175 11.72799103 41.99632825 16.4593565 40.5234375 23.171875 C38.89335547 28.39599332 36.44199819 30.88115021 32 34 C29.0780231 35.46098845 26.50106525 35.11134901 23.2421875 35.09765625 C22.02901855 35.09515869 20.81584961 35.09266113 19.56591797 35.09008789 C18.01791504 35.08098389 16.46991211 35.07187988 14.875 35.0625 C9.96625 35.041875 5.0575 35.02125 0 35 C0 23.45 0 11.9 0 0 Z " fill="#FAFAFA" transform="translate(267,537)"/>
<path d="M0 0 C0.66 0 1.32 0 2 0 C3.99966863 5.78209656 5.99333979 11.56621231 7.98144531 17.35229492 C8.65882955 19.32096316 9.33785841 21.28906629 10.01855469 23.2565918 C10.99585452 26.08235598 11.96725039 28.91008979 12.9375 31.73828125 C13.24373291 32.61962234 13.54996582 33.50096344 13.86547852 34.40901184 C14.14576904 35.22963608 14.42605957 36.05026031 14.71484375 36.89575195 C14.96355225 37.61745071 15.21226074 38.33914948 15.46850586 39.0827179 C16 41 16 41 16 44 C5.77 44 -4.46 44 -15 44 C-13.1995302 37.3982774 -11.4477671 31.07686173 -9.08203125 24.70703125 C-8.81992355 23.99012619 -8.55781586 23.27322113 -8.2877655 22.53459167 C-7.46689095 20.29232118 -6.63983886 18.05239224 -5.8125 15.8125 C-5.24763196 14.27293863 -4.68317581 12.73322607 -4.11914062 11.19335938 C-2.75083007 7.46048179 -1.37698265 3.72968686 0 0 Z " fill="#F7FAFA" transform="translate(229,407)"/>
<path d="M0 0 C4.16397919 2.4810376 6.25315225 5.16870567 8.5625 9.4375 C9.0575 13.8925 9.0575 13.8925 9.5625 18.4375 C-4.2975 18.4375 -18.1575 18.4375 -32.4375 18.4375 C-31.36072122 10.90004857 -29.6033683 6.92240906 -23.8125 2.078125 C-16.97608176 -2.63900358 -7.63756225 -3.41066711 0 0 Z " fill="#F1F7F7" transform="translate(825.4375,431.5625)"/>
<path d="M0 0 C3.63313813 2.42663635 6.26433798 5.41766686 8.08203125 9.390625 C8.57703125 13.350625 8.57703125 13.350625 9.08203125 17.390625 C-4.44796875 17.390625 -17.97796875 17.390625 -31.91796875 17.390625 C-30.00530101 8.78362017 -29.13935991 5.7884104 -22.91796875 0.390625 C-15.38690126 -4.07222981 -7.73130961 -3.84534488 0 0 Z " fill="#F2F8F8" transform="translate(366.91796875,432.609375)"/>
<path d="M0 0 C5.04988486 2.34900482 7.76460812 5.56932227 10.76171875 10.21484375 C11.51171875 12.27734375 11.51171875 12.27734375 11.51171875 18.27734375 C-2.34828125 18.27734375 -16.20828125 18.27734375 -30.48828125 18.27734375 C-29.11580865 10.04250813 -25.93873809 6.11518638 -19.48828125 1.27734375 C-13.9196364 -2.18490066 -6.13634677 -1.78214153 0 0 Z " fill="#F9F9FA" transform="translate(642.48828125,564.72265625)"/>
<path d="M0 0 C0.77472656 0.00451172 1.54945313 0.00902344 2.34765625 0.01367188 C4.23180524 0.02530242 6.11591365 0.04323094 8 0.0625 C8.14057113 7.26122175 7.52718874 11.13628146 2.625 16.8125 C-2.75694788 21.42559819 -8.01393063 21.54264922 -14.88671875 21.45703125 C-19.43633705 20.88047987 -21.05509565 19.49822174 -24 16.0625 C-25.42662219 13.20925563 -25.31033868 11.22795451 -25 8.0625 C-22.82698709 4.64776542 -20.86586281 2.35112094 -17 1.0625 C-11.28626573 0.19545954 -5.77207118 -0.06502333 0 0 Z " fill="#F7FAFA" transform="translate(516,460.9375)"/>
<path d="M0 0 C5.94 0 11.88 0 18 0 C18 36.3 18 72.6 18 110 C12.06 110 6.12 110 0 110 C0 73.7 0 37.4 0 0 Z M2 2 C2 37.31 2 72.62 2 109 C6.62 109 11.24 109 16 109 C16 73.69 16 38.38 16 2 C11.38 2 6.76 2 2 2 Z " fill="#2E9FA2" transform="translate(289,385)"/>
<path d="M0 0 C3.80370599 3.18449804 4.51765543 4.72139886 5.0625 9.625 C4.61581385 13.94296607 3.4559289 15.94326548 0.6875 19.25 C-2.7219043 21.83644464 -6.1511449 21.61503115 -10.3125 21.25 C-14.45863048 19.45962547 -16.52212547 17.39613048 -18.3125 13.25 C-18.86207375 8.93192054 -18.6066115 6.80671106 -16.5625 2.9375 C-11.92623943 -2.60025568 -6.52345032 -3.44635111 0 0 Z " fill="#0F2F51" transform="translate(756.3125,520.75)"/>
<path d="M0 0 C5.28 0 10.56 0 16 0 C16 36.3 16 72.6 16 110 C10.72 110 5.44 110 0 110 C0 106.04 0 102.08 0 98 C0.33 98 0.66 98 1 98 C1 101.3 1 104.6 1 108 C4.96 108 8.92 108 13 108 C13.33 73.02 13.66 38.04 14 2 C9.71 2 5.42 2 1 2 C1 16.19 1 30.38 1 45 C0.67 45 0.34 45 0 45 C0 30.15 0 15.3 0 0 Z " fill="#139698" transform="translate(698,385)"/>
<path d="M0 0 C5.94 0 11.88 0 18 0 C18 25.41 18 50.82 18 77 C12.06 77 6.12 77 0 77 C0 51.59 0 26.18 0 0 Z M1 2 C1 26.42 1 50.84 1 76 C5.95 76 10.9 76 16 76 C16 51.58 16 27.16 16 2 C11.05 2 6.1 2 1 2 Z " fill="#0C1D3A" transform="translate(741,552)"/>
<path d="M0 0 C5.61 0 11.22 0 17 0 C17 25.74 17 51.48 17 78 C11.39 78 5.78 78 0 78 C0 74.7 0 71.4 0 68 C0.33 68 0.66 68 1 68 C1 70.97 1 73.94 1 77 C5.62 77 10.24 77 15 77 C15 52.25 15 27.5 15 2 C10.38 2 5.76 2 1 2 C1 17.51 1 33.02 1 49 C0.67 49 0.34 49 0 49 C0 32.83 0 16.66 0 0 Z " fill="#152748" transform="translate(391,551)"/>
<path d="M0 0 C5.28 0 10.56 0 16 0 C16 3.96 16 7.92 16 12 C15.67 12 15.34 12 15 12 C15 8.7 15 5.4 15 2 C10.71 2 6.42 2 2 2 C2 26.42 2 50.84 2 76 C7.94 75.505 7.94 75.505 14 75 C14.33 75.66 14.66 76.32 15 77 C10.05 77 5.1 77 0 77 C0 51.59 0 26.18 0 0 Z " fill="#0D9396" transform="translate(557,418)"/>
<path d="M0 0 C1.89213369 2.38573379 3.02391783 4.07175348 4 7 C6.43742131 7.16789126 8.87492546 7.33436133 11.3125 7.5 C12.00279297 7.54769531 12.69308594 7.59539062 13.40429688 7.64453125 C16.27662359 7.83879489 19.12013788 8 22 8 C22 8.66 22 9.32 22 10 C15.73 10 9.46 10 3 10 C0 3 0 3 0 0 Z " fill="#0C8F92" transform="translate(259,485)"/>
<path d="M0 0 C1.24546405 2.49092811 0.7767578 3.41080733 0 6 C0.84304688 5.97679687 1.68609375 5.95359375 2.5546875 5.9296875 C4.19824219 5.90261719 4.19824219 5.90261719 5.875 5.875 C7.51082031 5.84019531 7.51082031 5.84019531 9.1796875 5.8046875 C12 6 12 6 14 8 C7.73 8 1.46 8 -5 8 C-3.47524303 4.95048605 -2.07114674 2.63600494 0 0 Z " fill="#0F9195" transform="translate(398,487)"/>
<path d="M0 0 C6.6 0 13.2 0 20 0 C19.34 1.32 18.68 2.64 18 4 C17.67 3.34 17.34 2.68 17 2 C11.39 2 5.78 2 0 2 C0 1.34 0 0.68 0 0 Z " fill="#0D9094" transform="translate(448,418)"/>
<path d="M0 0 C6.93 0 13.86 0 21 0 C21 0.66 21 1.32 21 2 C17.8765076 2.25427918 14.75153179 2.47412319 11.625 2.6875 C10.29082031 2.79674805 10.29082031 2.79674805 8.9296875 2.90820312 C7.65351563 2.99038086 7.65351563 2.99038086 6.3515625 3.07421875 C5.56604004 3.13182373 4.78051758 3.18942871 3.97119141 3.2487793 C2.99545166 3.12563354 2.99545166 3.12563354 2 3 C1.34 2.01 0.68 1.02 0 0 Z " fill="#0B9093" transform="translate(394,418)"/>
<path d="M0 0 C2.69127129 1.09644386 4.19764694 2.20313713 6.25 4.3125 C9.52685128 7.51487739 13.06078085 9.70293672 17 12 C14 13 14 13 11.9140625 11.99609375 C7.14093919 8.74613436 3.38642753 5.6973027 0 1 C0 0.67 0 0.34 0 0 Z " fill="#0F2549" transform="translate(424,645)"/>
<path d="M0 0 C-1.49097658 3.7952131 -3.75700849 5.61042731 -7 8 C-7 5 -7 5 -4.625 2.3125 C-2 0 -2 0 0 0 Z " fill="#102548" transform="translate(476,638)"/>
<path d="M0 0 C0.66 0.33 1.32 0.66 2 1 C0.35 2.98 -1.3 4.96 -3 7 C-3.99 6.67 -4.98 6.34 -6 6 C-4.02 4.02 -2.04 2.04 0 0 Z " fill="#082044" transform="translate(475,602)"/>
<path d="M0 0 C2.7972908 2.06756277 3.02692273 3.14440371 3.6875 6.6875 C3.790625 7.780625 3.89375 8.87375 4 10 C1.997499 7.997499 1.06784629 6.593341 0 4 C0 2.68 0 1.36 0 0 Z " fill="#189698" transform="translate(240,388)"/>
</svg>
